<svg xmlns:dc="http://purl.org/dc/elements/1.1/" xmlns:cc="http://creativecommons.org/ns#" xmlns:rdf="http://www.w3.org/1999/02/22-rdf-syntax-ns#" xmlns:svg="http://www.w3.org/2000/svg" xmlns="http://www.w3.org/2000/svg" xmlns:sodipodi="http://sodipodi.sourceforge.net/DTD/sodipodi-0.dtd" xmlns:inkscape="http://www.inkscape.org/namespaces/inkscape" viewBox="0 0 100 100" version="1.1" x="0px" y="0px"><title>Photo Sphere</title><g transform="translate(0,-952.36216)"><path style="opacity:1;fill:#000000;fill-opacity:1;fill-rule:evenodd;stroke:none;stroke-width:9;stroke-linecap:round;stroke-linejoin:round;stroke-miterlimit:4;stroke-dasharray:none;stroke-dashoffset:0;stroke-opacity:1" d="m 49.105387,956.37481 c -11.703665,0.11278 -23.185993,5.0175 -31.462919,13.23639 -3.471333,3.37401 -6.424382,7.30745 -8.7564655,11.5174 -3.8902968,2.55619 -7.2046082,6.29092 -8.36010714,10.87756 -0.73338474,4.85102 -0.39529912,9.79594 -0.51206587,14.68644 -0.11298077,3.7612 0.44107176,7.6585 2.59755361,10.8418 1.5463949,2.5957 3.8960909,4.5519 6.3595875,6.2362 0.9578447,1.1671 1.4851194,2.6777 2.4537414,3.8708 5.723174,8.7567 14.584634,15.4432 24.637085,18.4652 4.861775,1.5502 9.954172,2.5667 15.080321,2.1692 10.851874,-0.113 21.551452,-4.4509 29.657161,-11.5875 3.94728,-3.7022 7.428267,-7.9358 10.08074,-12.6511 1.508938,-1.5075 3.500661,-2.51 4.82978,-4.2333 2.741587,-3.0194 4.395331,-7.0259 4.214565,-11.1278 -0.01087,-5.2651 0.293626,-10.56132 -0.247608,-15.80677 -0.795131,-3.77055 -2.893966,-7.28726 -5.909728,-9.7199 -0.99869,-1.09967 -2.74327,-1.49287 -3.178704,-3.03291 -3.313833,-5.48388 -7.455276,-10.51607 -12.648292,-14.33564 -8.146959,-6.37773 -18.499949,-9.64866 -28.834645,-9.40607 z m 0.408914,4.43666 c 3.151441,-0.10177 6.250328,1.23234 8.294557,3.63564 4.023534,4.0481 6.604848,9.25039 8.430659,14.62112 -8.109854,0.38094 -16.27917,0.12478 -24.411952,0.18752 -2.695409,-0.0903 -5.653497,0.12642 -8.204283,-0.24364 2.141992,-6.05658 5.077687,-12.36387 10.376535,-16.31952 1.610029,-1.15688 3.525323,-1.92541 5.514484,-1.88112 z m 12.628312,1.49911 c 9.358897,2.79464 17.456316,9.04999 22.974383,17.03873 -4.769013,0.0114 -9.537833,-0.0541 -14.306681,-0.086 -1.781789,-6.15028 -4.942045,-11.81112 -8.709053,-16.96133 l 0.04136,0.008 z m -24.320195,0.0511 c -3.677462,4.23157 -6.078992,9.35058 -8.040933,14.55052 -0.356694,0.6691 -0.447557,1.63293 -0.828495,2.1999 -4.682167,0.32686 -9.39334,0.19825 -14.086782,0.2064 5.63979,-7.84229 13.606837,-14.25486 22.975296,-16.98578 l -0.01907,0.029 z m 22.925783,20.8191 c 8.26297,0.0903 16.58401,-0.16444 24.811792,0.26524 5.024425,1.12379 9.369967,5.44993 10.236589,10.52859 0.370999,5.73237 0.428719,11.53789 -0.06955,17.26509 -0.878873,4.6037 -4.700982,8.3193 -9.049356,9.8496 -0.9822,0.2639 -2.216624,0.5147 -2.635689,-0.691 -4.15737,-5.3854 -8.136836,-10.9159 -12.383881,-16.2274 -0.826284,-0.8946 -1.363875,0.9372 -1.910098,1.3227 -4.010103,5.1247 -7.809426,10.4106 -11.91861,15.4536 -7.359603,-9.149 -14.183862,-18.7233 -21.580432,-27.83802 -0.928911,-0.007 -1.281348,1.32829 -1.933275,1.85578 -6.745205,8.72514 -13.285009,17.63464 -20.041996,26.33174 -3.845721,-0.8599 -7.0584466,-3.723 -8.9840755,-7.0739 -1.8403015,-3.5722 -1.0558382,-7.731 -1.2320016,-11.5852 0.1303631,-3.21942 -0.14968,-6.51732 0.2543794,-9.68485 1.4355973,-4.65354 5.5387474,-8.59504 10.3924247,-9.54022 13.500461,-0.39012 27.04603,-0.16273 40.56379,-0.23292 1.82665,3.8e-4 3.6533,7.8e-4 5.479959,9.2e-4 z m 22.976207,44.06972 c -5.432381,7.0529 -13.022238,12.4932 -21.558628,15.1328 3.84107,-4.9908 6.767884,-10.6683 8.624085,-16.6794 4.768378,-0.065 9.554,0.1557 14.310781,-0.2413 -0.458749,0.596 -0.917498,1.1919 -1.376238,1.7879 z m -68.625578,-1.6494 c 4.640023,0.029 9.279742,0.093 13.919581,0.1422 1.914409,5.8856 4.630479,11.5283 8.398271,16.4661 -7.742881,-2.4861 -14.747846,-7.1699 -19.868375,-13.4914 -0.796918,-1.0193 -1.892698,-2.0519 -2.449477,-3.1169 z m 25.687792,0.1448 c 8.521615,0 17.043119,0.048 25.564669,0.073 -2.359534,5.8872 -4.979324,12.0579 -10.152535,16.052 -2.641669,2.28 -6.569051,2.6774 -9.806768,1.6047 -4.920637,-2.1293 -7.941751,-6.9757 -10.294376,-11.544 -0.948763,-1.9915 -1.871566,-4.0142 -2.48251,-6.1371 2.390006,-0.051 4.781099,-0.039 7.17152,-0.048 z"></path></g></svg>